HIERARCHY
ROOT Hips
{
	OFFSET -0.001795 -0.223333 0.028219
	CHANNELS 6 Xposition Yposition Zposition Zrotation Yrotation Xrotation 
	JOINT LeftUpLeg
	{
		OFFSET 0.069520 -0.091406 -0.006815
		CHANNELS 3 Zrotation Yrotation Xrotation
		JOINT LeftLeg
		{
			OFFSET 0.034277 -0.375199 -0.004496
			CHANNELS 3 Zrotation Yrotation Xrotation
			JOINT LeftFoot
			{
				OFFSET -0.013596 -0.397961 -0.043693
				CHANNELS 3 Zrotation Yrotation Xrotation
				JOINT LeftToe
				{
					OFFSET 0.026358 -0.055791 0.119288
					CHANNELS 3 Zrotation Yrotation Xrotation
					End Site
					{
						OFFSET 0.000000 0.000000 0.000000
					}
				}
			}
		}
	}
	JOINT RightUpLeg
	{
		OFFSET -0.067670 -0.090522 -0.004320
		CHANNELS 3 Zrotation Yrotation Xrotation
		JOINT RightLeg
		{
			OFFSET -0.038290 -0.382569 -0.008850
			CHANNELS 3 Zrotation Yrotation Xrotation
			JOINT RightFoot
			{
				OFFSET 0.015774 -0.398415 -0.042312
				CHANNELS 3 Zrotation Yrotation Xrotation
				JOINT RightToe
				{
					OFFSET -0.025372 -0.048144 0.123348
					CHANNELS 3 Zrotation Yrotation Xrotation
					End Site
					{
						OFFSET 0.000000 0.000000 0.000000
					}
				}
			}
		}
	}
	JOINT Spine
	{
		OFFSET -0.002533 0.108963 -0.026696
		CHANNELS 3 Zrotation Yrotation Xrotation
		JOINT Spine1
		{
			OFFSET 0.005487 0.135180 0.001092
			CHANNELS 3 Zrotation Yrotation Xrotation
			JOINT Spine2
			{
				OFFSET 0.001457 0.052922 0.025425
				CHANNELS 3 Zrotation Yrotation Xrotation
				JOINT Neck
				{
					OFFSET -0.002778 0.213870 -0.042857
					CHANNELS 3 Zrotation Yrotation Xrotation
					JOINT Head
					{
						OFFSET 0.005152 0.064970 0.051349
						CHANNELS 3 Zrotation Yrotation Xrotation
						End Site
						{
							OFFSET 0.000000 0.000000 0.000000
						}
					}
				}
				JOINT LeftShoulder
				{
					OFFSET 0.078845 0.121749 -0.034090
					CHANNELS 3 Zrotation Yrotation Xrotation
					JOINT LeftArm
					{
						OFFSET 0.090977 0.030469 -0.008868
						CHANNELS 3 Zrotation Yrotation Xrotation
						JOINT LeftForeArm
						{
							OFFSET 0.259612 -0.012772 -0.027456
							CHANNELS 3 Zrotation Yrotation Xrotation
							JOINT LeftHand
							{
								OFFSET 0.249234 0.008986 -0.001171
								CHANNELS 3 Zrotation Yrotation Xrotation
								End Site
								{
									OFFSET 0.000000 0.000000 0.000000
								}
							}
						}
					}
				}
				JOINT RightShoulder
				{
					OFFSET -0.081759 0.118833 -0.038615
					CHANNELS 3 Zrotation Yrotation Xrotation
					JOINT RightArm
					{
						OFFSET -0.096012 0.032551 -0.009143
						CHANNELS 3 Zrotation Yrotation Xrotation
						JOINT RightForeArm
						{
							OFFSET -0.253742 -0.013329 -0.021401
							CHANNELS 3 Zrotation Yrotation Xrotation
							JOINT RightHand
							{
								OFFSET -0.255298 0.007772 -0.005559
								CHANNELS 3 Zrotation Yrotation Xrotation
								End Site
								{
									OFFSET 0.000000 0.000000 0.000000
								}
							}
						}
					}
				}
			}
		}
	}
}
MOTION
Frames: 8
Frame Time: 0.050000
0.000000 0.789629 0.000000 -11.024689 26.765530 -17.944169 48.873435 -6.614806 -5.894886 -57.497311 17.668211 41.254724 15.415517 38.409352 -19.230010 0.000000 0.000000 0.000000 2.248089 1.438438 -17.105118 -19.280813 5.195629 49.467520 -0.754711 19.073074 -34.072437 0.000000 0.000000 0.000000 -0.325694 -0.717489 11.663334 16.737470 -3.842627 -22.839921 -15.487216 -10.594790 15.538245 -6.738812 5.896190 -3.200708 0.000000 0.000000 0.000000 17.078871 -10.183360 4.092036 -26.990310 -58.833014 6.291060 29.077400 -58.177913 -15.658505 0.000000 0.000000 0.000000 -8.174026 4.162422 0.926795 39.115976 1.788507 -3.361212 37.696760 55.777645 24.808686 0.000000 0.000000 0.000000 
0.028990 0.765706 -0.019332 -16.951443 34.943386 -18.746933 54.920351 -5.486865 -22.702469 -48.924063 19.420971 59.034509 19.021189 39.052781 1.201268 0.000000 0.000000 0.000000 -1.320954 0.269401 -17.154201 -11.680803 -2.564110 52.636545 -0.293332 11.660989 -33.165077 0.000000 0.000000 0.000000 5.565679 -0.692703 7.234292 -10.062842 2.715777 -27.601374 2.990109 -21.898744 27.297751 -2.070704 3.058054 -17.428353 0.000000 0.000000 0.000000 18.393379 -22.265709 4.733923 -8.288700 -72.426792 -3.451651 22.569070 -37.735234 -6.478083 0.000000 0.000000 0.000000 -8.528837 -19.694859 -6.346830 36.789178 8.946843 -2.950624 63.428516 51.436674 39.780828 0.000000 0.000000 0.000000 
0.063972 0.747911 -0.041487 -18.792660 36.301119 -18.168625 61.254142 -5.389870 -26.244286 -54.824733 23.582487 55.570784 23.918906 42.992596 10.408834 0.000000 0.000000 0.000000 -4.210745 -0.418595 -16.237241 -11.076269 -2.641055 51.196834 -1.031220 10.764983 -37.913462 0.000000 0.000000 0.000000 3.260132 -0.700775 8.168213 0.747194 0.536409 -31.562655 -7.728490 -11.194903 33.594637 1.629384 2.131817 -16.934370 0.000000 0.000000 0.000000 26.510193 -22.925974 5.403811 4.833094 -73.169470 -18.366349 21.759456 -38.220291 -6.842072 0.000000 0.000000 0.000000 -5.060655 -12.141818 -5.246308 33.933868 -0.281908 -4.922993 73.434526 58.186401 57.267747 0.000000 0.000000 0.000000 
0.097310 0.726594 -0.061584 -19.631386 36.222079 -16.776003 65.494672 -7.425421 -24.087793 -62.091898 25.564906 48.470983 24.921722 49.104214 2.312490 0.000000 0.000000 0.000000 -6.448142 -1.135147 -17.601793 -12.656424 -1.348922 49.625216 -0.518632 8.305983 -35.142598 0.000000 0.000000 0.000000 0.230687 -0.451560 7.475224 5.633202 0.000999 -25.569631 -9.839828 -11.013916 27.645624 -1.441193 3.061198 -7.538430 0.000000 0.000000 0.000000 21.238973 -19.449681 6.024875 8.471375 -73.110796 -20.319908 18.752931 -41.405029 -6.459212 0.000000 0.000000 0.000000 -8.633759 -4.413395 -2.892306 32.950120 -8.469053 -6.246954 79.042459 55.801797 59.510748 0.000000 0.000000 0.000000 
0.128310 0.709582 -0.081118 -22.257112 36.197309 -17.918834 69.477426 -8.546360 -23.313023 -63.561850 27.142368 47.725930 19.674499 47.002342 -9.003280 0.000000 0.000000 0.000000 -7.158981 -1.262234 -16.876920 -12.893947 -0.577368 46.259411 -0.375803 12.491993 -39.116566 0.000000 0.000000 0.000000 -0.637461 -0.506708 8.471262 3.892785 0.494609 -17.638142 -3.923988 -9.657048 20.184365 -0.804250 3.051001 -11.499389 0.000000 0.000000 0.000000 26.140067 -26.959958 6.406233 1.742139 -68.924268 -13.916066 25.910819 -41.602637 -9.581899 0.000000 0.000000 0.000000 -18.151603 -12.497113 -5.169650 32.302681 -11.844328 -5.661755 88.513440 48.343817 61.539467 0.000000 0.000000 0.000000 
0.156891 0.689289 -0.101449 -25.423936 36.898813 -19.231818 74.450290 -12.642947 -19.867985 -67.390775 25.373484 39.693909 18.346805 48.463224 -15.317097 0.000000 0.000000 0.000000 -6.865665 -1.275084 -16.664389 -13.483794 -0.058420 42.062599 0.061923 6.438380 -38.850662 0.000000 0.000000 0.000000 2.205246 -1.405804 13.152753 4.282014 0.435387 -24.345527 -9.616450 -10.310592 28.182224 0.599191 2.812375 -14.668984 0.000000 0.000000 0.000000 31.987470 -27.070714 5.828319 12.121695 -68.996735 -22.286825 30.483269 -39.088257 -10.757618 0.000000 0.000000 0.000000 -18.133227 -18.081185 -7.020314 33.416571 -5.838542 -4.725490 82.507698 53.615868 63.862341 0.000000 0.000000 0.000000 
0.183113 0.671935 -0.123158 -25.596025 36.544567 -16.479377 77.625412 -15.192057 -16.819003 -64.527695 22.515031 35.038527 14.094319 42.952363 -24.398939 0.000000 0.000000 0.000000 -11.376117 -3.111377 -20.082192 -9.473437 -0.918978 39.201746 1.224573 9.331810 -31.740551 0.000000 0.000000 0.000000 1.652041 -1.164906 12.054833 7.481353 -0.378959 -23.287521 -12.434679 -12.831981 28.073857 2.695572 1.688928 -22.106898 0.000000 0.000000 0.000000 31.606442 -21.655402 5.367009 -3.571722 -73.611693 -11.934161 37.099022 -42.968528 -14.228262 0.000000 0.000000 0.000000 -25.945651 -14.609904 -4.724655 36.595319 -2.575354 -3.375448 73.108909 55.882369 54.455321 0.000000 0.000000 0.000000 
0.209201 0.659643 -0.146763 -26.709277 37.106144 -14.861337 81.703283 -16.848639 -17.328087 -58.841666 20.238309 33.112169 20.766870 44.893257 -4.266951 0.000000 0.000000 0.000000 -13.531770 -5.052810 -24.693022 -9.974708 -0.746863 39.690793 3.534808 14.689525 -23.911967 0.000000 0.000000 0.000000 1.483132 -1.394492 13.494352 11.311002 -1.403619 -25.630797 -13.380027 -8.853413 28.395095 -7.068173 8.312748 -23.171540 0.000000 0.000000 0.000000 33.218289 -13.206888 6.685135 39.382483 -81.065228 -55.246650 37.396242 -45.161655 -14.654250 0.000000 0.000000 0.000000 -26.285118 -20.821581 -6.688373 36.468668 -4.650389 -3.328221 78.999498 63.039817 70.384192 0.000000 0.000000 0.000000 
